<mxfile host="app.diagrams.net" modified="2024-01-06T21:12:29.622Z" agent="Mozilla/5.0 (X11; Linux x86_64) AppleWebKit/537.36 (KHTML, like Gecko) Chrome/120.0.0.0 Safari/537.36" etag="PGAlalcyH-_hc_9Jegqy" version="22.1.17" type="github">
  <diagram name="Page-1" id="qRqbwxgHaPCpjBQqy8Iy">
    <mxGraphModel dx="2045" dy="1674" grid="1" gridSize="10" guides="1" tooltips="1" connect="1" arrows="1" fold="1" page="1" pageScale="1" pageWidth="850" pageHeight="1100" math="0" shadow="0">
      <root>
        <mxCell id="0" />
        <mxCell id="1" parent="0" />
        <mxCell id="U1IpEVrX-Kv7V90kOn5A-36" style="edgeStyle=orthogonalEdgeStyle;rounded=0;orthogonalLoop=1;jettySize=auto;html=1;exitX=1;exitY=0.25;exitDx=0;exitDy=0;" edge="1" parent="1" source="U1IpEVrX-Kv7V90kOn5A-1" target="U1IpEVrX-Kv7V90kOn5A-22">
          <mxGeometry relative="1" as="geometry" />
        </mxCell>
        <mxCell id="U1IpEVrX-Kv7V90kOn5A-37" style="edgeStyle=elbowEdgeStyle;rounded=0;orthogonalLoop=1;jettySize=auto;html=1;exitX=1;exitY=0.75;exitDx=0;exitDy=0;entryX=0.5;entryY=1;entryDx=0;entryDy=0;elbow=vertical;" edge="1" parent="1" source="U1IpEVrX-Kv7V90kOn5A-1" target="U1IpEVrX-Kv7V90kOn5A-24">
          <mxGeometry relative="1" as="geometry" />
        </mxCell>
        <mxCell id="U1IpEVrX-Kv7V90kOn5A-1" value="docker" style="rounded=0;whiteSpace=wrap;html=1;fillColor=#e1d5e7;strokeColor=#9673a6;" vertex="1" parent="1">
          <mxGeometry x="220" y="130" width="120" height="60" as="geometry" />
        </mxCell>
        <mxCell id="U1IpEVrX-Kv7V90kOn5A-28" style="edgeStyle=entityRelationEdgeStyle;rounded=0;orthogonalLoop=1;jettySize=auto;html=1;startArrow=none;endArrow=none;segment=10;curved=1;sourcePerimeterSpacing=0;targetPerimeterSpacing=0;exitX=1;exitY=0.5;exitDx=0;exitDy=0;entryX=0;entryY=1;entryDx=0;entryDy=0;" edge="1" parent="1" source="U1IpEVrX-Kv7V90kOn5A-6" target="U1IpEVrX-Kv7V90kOn5A-26">
          <mxGeometry relative="1" as="geometry" />
        </mxCell>
        <mxCell id="U1IpEVrX-Kv7V90kOn5A-6" value="Nginx" style="whiteSpace=wrap;html=1;rounded=1;arcSize=50;align=center;verticalAlign=middle;strokeWidth=1;autosize=1;spacing=4;treeFolding=1;treeMoving=1;newEdgeStyle={&quot;edgeStyle&quot;:&quot;entityRelationEdgeStyle&quot;,&quot;startArrow&quot;:&quot;none&quot;,&quot;endArrow&quot;:&quot;none&quot;,&quot;segment&quot;:10,&quot;curved&quot;:1,&quot;sourcePerimeterSpacing&quot;:0,&quot;targetPerimeterSpacing&quot;:0};" vertex="1" parent="1">
          <mxGeometry x="-20" y="280" width="80" height="30" as="geometry" />
        </mxCell>
        <mxCell id="U1IpEVrX-Kv7V90kOn5A-48" style="edgeStyle=entityRelationEdgeStyle;rounded=0;orthogonalLoop=1;jettySize=auto;html=1;startArrow=none;endArrow=none;segment=10;sourcePerimeterSpacing=0;targetPerimeterSpacing=0;exitX=0.5;exitY=1;exitDx=0;exitDy=0;entryX=0.5;entryY=1;entryDx=0;entryDy=0;" edge="1" parent="1" source="U1IpEVrX-Kv7V90kOn5A-8" target="U1IpEVrX-Kv7V90kOn5A-26">
          <mxGeometry relative="1" as="geometry" />
        </mxCell>
        <mxCell id="U1IpEVrX-Kv7V90kOn5A-50" style="edgeStyle=orthogonalEdgeStyle;rounded=0;orthogonalLoop=1;jettySize=auto;html=1;startArrow=none;endArrow=none;segment=10;curved=1;sourcePerimeterSpacing=0;targetPerimeterSpacing=0;exitX=0.5;exitY=0;exitDx=0;exitDy=0;entryX=0.5;entryY=1;entryDx=0;entryDy=0;fillColor=#f8cecc;strokeColor=#b85450;dashed=1;" edge="1" parent="1" source="U1IpEVrX-Kv7V90kOn5A-8" target="U1IpEVrX-Kv7V90kOn5A-40">
          <mxGeometry relative="1" as="geometry" />
        </mxCell>
        <mxCell id="U1IpEVrX-Kv7V90kOn5A-8" value="RabbitMQ" style="whiteSpace=wrap;html=1;rounded=1;arcSize=50;align=center;verticalAlign=middle;strokeWidth=1;autosize=1;spacing=4;treeFolding=1;treeMoving=1;newEdgeStyle={&quot;edgeStyle&quot;:&quot;entityRelationEdgeStyle&quot;,&quot;startArrow&quot;:&quot;none&quot;,&quot;endArrow&quot;:&quot;none&quot;,&quot;segment&quot;:10,&quot;curved&quot;:1,&quot;sourcePerimeterSpacing&quot;:0,&quot;targetPerimeterSpacing&quot;:0};direction=west;" vertex="1" parent="1">
          <mxGeometry x="80" y="310" width="100" height="30" as="geometry" />
        </mxCell>
        <mxCell id="U1IpEVrX-Kv7V90kOn5A-22" value="postgresql" style="shape=cylinder3;whiteSpace=wrap;html=1;boundedLbl=1;backgroundOutline=1;size=15;fillColor=#f8cecc;strokeColor=#b85450;gradientColor=#ea6b66;" vertex="1" parent="1">
          <mxGeometry x="270" y="-30" width="60" height="80" as="geometry" />
        </mxCell>
        <mxCell id="U1IpEVrX-Kv7V90kOn5A-24" value="Message brocker &amp;amp; Task Manager" style="rounded=0;whiteSpace=wrap;html=1;fillColor=#d5e8d4;strokeColor=#82b366;" vertex="1" parent="1">
          <mxGeometry x="430" y="80" width="120" height="60" as="geometry" />
        </mxCell>
        <mxCell id="U1IpEVrX-Kv7V90kOn5A-25" value="" style="endArrow=none;dashed=1;html=1;dashPattern=1 3;strokeWidth=2;rounded=0;exitX=0;exitY=1;exitDx=0;exitDy=0;" edge="1" parent="1" source="U1IpEVrX-Kv7V90kOn5A-1" target="U1IpEVrX-Kv7V90kOn5A-26">
          <mxGeometry width="50" height="50" relative="1" as="geometry">
            <mxPoint x="200" y="270" as="sourcePoint" />
            <mxPoint x="220" y="190" as="targetPoint" />
          </mxGeometry>
        </mxCell>
        <mxCell id="U1IpEVrX-Kv7V90kOn5A-26" value="images" style="shape=ext;double=1;rounded=1;whiteSpace=wrap;html=1;" vertex="1" parent="1">
          <mxGeometry x="100" y="210" width="80" height="50" as="geometry" />
        </mxCell>
        <mxCell id="U1IpEVrX-Kv7V90kOn5A-31" value="" style="endArrow=none;dashed=1;html=1;dashPattern=1 3;strokeWidth=2;rounded=0;exitX=0;exitY=0.5;exitDx=0;exitDy=0;" edge="1" target="U1IpEVrX-Kv7V90kOn5A-32" parent="1" source="U1IpEVrX-Kv7V90kOn5A-1">
          <mxGeometry width="50" height="50" relative="1" as="geometry">
            <mxPoint x="210" y="160" as="sourcePoint" />
            <mxPoint x="230" y="200" as="targetPoint" />
          </mxGeometry>
        </mxCell>
        <mxCell id="U1IpEVrX-Kv7V90kOn5A-32" value="docker compose" style="shape=ext;double=1;rounded=1;whiteSpace=wrap;html=1;" vertex="1" parent="1">
          <mxGeometry x="100" y="135" width="80" height="50" as="geometry" />
        </mxCell>
        <mxCell id="U1IpEVrX-Kv7V90kOn5A-33" value="" style="endArrow=none;dashed=1;html=1;dashPattern=1 3;strokeWidth=2;rounded=0;exitX=0;exitY=0;exitDx=0;exitDy=0;" edge="1" target="U1IpEVrX-Kv7V90kOn5A-34" parent="1" source="U1IpEVrX-Kv7V90kOn5A-1">
          <mxGeometry width="50" height="50" relative="1" as="geometry">
            <mxPoint x="150" y="110" as="sourcePoint" />
            <mxPoint x="150" y="110" as="targetPoint" />
          </mxGeometry>
        </mxCell>
        <mxCell id="U1IpEVrX-Kv7V90kOn5A-34" value="dockerfile" style="shape=ext;double=1;rounded=1;whiteSpace=wrap;html=1;" vertex="1" parent="1">
          <mxGeometry x="100" y="60" width="80" height="50" as="geometry" />
        </mxCell>
        <mxCell id="U1IpEVrX-Kv7V90kOn5A-41" style="edgeStyle=entityRelationEdgeStyle;rounded=0;orthogonalLoop=1;jettySize=auto;html=1;startArrow=none;endArrow=none;segment=10;curved=1;sourcePerimeterSpacing=0;targetPerimeterSpacing=0;exitX=0;exitY=0.5;exitDx=0;exitDy=0;" edge="1" parent="1" source="U1IpEVrX-Kv7V90kOn5A-40" target="U1IpEVrX-Kv7V90kOn5A-24">
          <mxGeometry relative="1" as="geometry" />
        </mxCell>
        <mxCell id="U1IpEVrX-Kv7V90kOn5A-40" value="RabbitMQ" style="whiteSpace=wrap;html=1;rounded=1;arcSize=50;align=center;verticalAlign=middle;strokeWidth=1;autosize=1;spacing=4;treeFolding=1;treeMoving=1;newEdgeStyle={&quot;edgeStyle&quot;:&quot;entityRelationEdgeStyle&quot;,&quot;startArrow&quot;:&quot;none&quot;,&quot;endArrow&quot;:&quot;none&quot;,&quot;segment&quot;:10,&quot;curved&quot;:1,&quot;sourcePerimeterSpacing&quot;:0,&quot;targetPerimeterSpacing&quot;:0};" vertex="1" parent="1">
          <mxGeometry x="610" y="160" width="100" height="30" as="geometry" />
        </mxCell>
        <mxCell id="U1IpEVrX-Kv7V90kOn5A-49" style="edgeStyle=entityRelationEdgeStyle;rounded=0;orthogonalLoop=1;jettySize=auto;html=1;startArrow=none;endArrow=none;segment=10;curved=1;sourcePerimeterSpacing=0;targetPerimeterSpacing=0;exitX=0.5;exitY=0;exitDx=0;exitDy=0;" edge="1" parent="1" source="U1IpEVrX-Kv7V90kOn5A-42" target="U1IpEVrX-Kv7V90kOn5A-26">
          <mxGeometry relative="1" as="geometry" />
        </mxCell>
        <mxCell id="U1IpEVrX-Kv7V90kOn5A-42" value="Celery" style="whiteSpace=wrap;html=1;rounded=1;arcSize=50;align=center;verticalAlign=middle;strokeWidth=1;autosize=1;spacing=4;treeFolding=1;treeMoving=1;newEdgeStyle={&quot;edgeStyle&quot;:&quot;entityRelationEdgeStyle&quot;,&quot;startArrow&quot;:&quot;none&quot;,&quot;endArrow&quot;:&quot;none&quot;,&quot;segment&quot;:10,&quot;curved&quot;:1,&quot;sourcePerimeterSpacing&quot;:0,&quot;targetPerimeterSpacing&quot;:0};" vertex="1" parent="1">
          <mxGeometry x="200" y="280" width="80" height="30" as="geometry" />
        </mxCell>
        <mxCell id="U1IpEVrX-Kv7V90kOn5A-52" style="edgeStyle=entityRelationEdgeStyle;rounded=0;orthogonalLoop=1;jettySize=auto;html=1;startArrow=none;endArrow=none;segment=10;curved=1;sourcePerimeterSpacing=0;targetPerimeterSpacing=0;exitX=0.45;exitY=-0.106;exitDx=0;exitDy=0;entryX=0.75;entryY=1;entryDx=0;entryDy=0;exitPerimeter=0;" edge="1" source="U1IpEVrX-Kv7V90kOn5A-53" parent="1" target="U1IpEVrX-Kv7V90kOn5A-24">
          <mxGeometry relative="1" as="geometry">
            <mxPoint x="470" y="160" as="targetPoint" />
            <Array as="points">
              <mxPoint x="530" y="150" />
            </Array>
          </mxGeometry>
        </mxCell>
        <mxCell id="U1IpEVrX-Kv7V90kOn5A-53" value="Celery" style="whiteSpace=wrap;html=1;rounded=1;arcSize=50;align=center;verticalAlign=middle;strokeWidth=1;autosize=1;spacing=4;treeFolding=1;treeMoving=1;newEdgeStyle={&quot;edgeStyle&quot;:&quot;entityRelationEdgeStyle&quot;,&quot;startArrow&quot;:&quot;none&quot;,&quot;endArrow&quot;:&quot;none&quot;,&quot;segment&quot;:10,&quot;curved&quot;:1,&quot;sourcePerimeterSpacing&quot;:0,&quot;targetPerimeterSpacing&quot;:0};" vertex="1" parent="1">
          <mxGeometry x="550" y="210" width="80" height="30" as="geometry" />
        </mxCell>
        <mxCell id="U1IpEVrX-Kv7V90kOn5A-54" style="edgeStyle=orthogonalEdgeStyle;rounded=0;orthogonalLoop=1;jettySize=auto;html=1;startArrow=none;endArrow=none;segment=10;curved=1;sourcePerimeterSpacing=0;targetPerimeterSpacing=0;exitX=0.5;exitY=1;exitDx=0;exitDy=0;entryX=0.5;entryY=1;entryDx=0;entryDy=0;fillColor=#f8cecc;strokeColor=#b85450;dashed=1;" edge="1" parent="1" source="U1IpEVrX-Kv7V90kOn5A-42" target="U1IpEVrX-Kv7V90kOn5A-53">
          <mxGeometry relative="1" as="geometry">
            <mxPoint x="280" y="299.75" as="sourcePoint" />
            <mxPoint x="810" y="149.75" as="targetPoint" />
          </mxGeometry>
        </mxCell>
      </root>
    </mxGraphModel>
  </diagram>
</mxfile>
